{"glyphs":{"0":{"ha":789,"x_min":56,"x_max":733,"o":"m 281 903 l 281 63 l 393 63 l 393 0 l 56 0 l 56 0 l 56 903 l 281 903 m 733 903 l 733 0 l 507 0 l 507 853 l 393 853 l 393 903 l 733 903 z "},"1":{"ha":450,"x_min":56,"x_max":394,"o":"m 394 903 l 394 0 l 168 0 l 168 851 l 56 851 l 56 903 l 394 903 z "},"2":{"ha":900,"x_min":56,"x_max":844,"o":"m 281 64 l 844 64 l 844 0 l 56 0 l 56 289 l 281 289 l 281 64 m 732 338 l 56 338 l 56 401 l 507 401 l 507 853 l 56 853 l 56 903 l 732 903 l 732 903 l 732 903 l 732 338 l 732 338 z "},"3":{"ha":788,"x_min":56,"x_max":732,"o":"m 732 903 l 732 0 l 732 0 l 56 0 l 56 64 l 507 64 l 507 853 l 56 853 l 56 903 l 732 903 m 393 515 l 393 451 l 56 451 l 56 515 l 393 515 z "},"4":{"ha":900,"x_min":56,"x_max":844,"o":"m 729 403 l 844 403 l 844 340 l 56 340 l 56 340 l 56 903 l 282 903 l 282 403 l 504 403 l 504 903 l 729 903 l 729 403 m 504 0 l 504 289 l 729 289 l 729 0 l 504 0 z "},"5":{"ha":789,"x_min":56,"x_max":733,"o":"m 56 903 l 733 903 l 733 840 l 281 840 l 281 565 l 56 565 l 56 903 l 56 903 l 56 903 m 56 501 l 733 501 l 733 0 l 56 0 l 56 51 l 508 51 l 508 451 l 56 451 l 56 501 z "},"6":{"ha":788,"x_min":56,"x_max":732,"o":"m 732 515 l 732 515 l 732 0 l 507 0 l 507 451 l 393 451 l 393 515 l 732 515 m 732 903 l 732 853 l 281 853 l 281 64 l 393 64 l 393 0 l 56 0 l 56 0 l 56 903 l 56 903 l 732 903 z "},"7":{"ha":789,"x_min":56,"x_max":733,"o":"m 733 903 l 733 0 l 507 0 l 507 853 l 56 853 l 56 903 l 733 903 z "},"8":{"ha":788,"x_min":56,"x_max":732,"o":"m 732 903 l 732 0 l 507 0 l 507 451 l 282 451 l 282 63 l 396 63 l 396 0 l 56 0 l 56 0 l 56 903 l 282 903 l 282 514 l 507 514 l 507 853 l 396 853 l 396 903 l 732 903 l 732 903 z "},"9":{"ha":789,"x_min":56,"x_max":733,"o":"m 56 400 l 56 400 l 56 903 l 281 903 l 281 450 l 393 450 l 393 400 l 56 400 m 733 903 l 733 903 l 733 0 l 733 0 l 56 0 l 56 63 l 506 63 l 506 853 l 393 853 l 393 903 l 733 903 z "},"!":{"ha":336,"x_min":56,"x_max":281,"o":"m 56 936 l 281 936 l 281 272 l 56 272 l 56 936 m 56 -15 l 56 210 l 281 210 l 281 -15 l 56 -15 z "},"\"":{"ha":468,"x_min":71,"x_max":399,"o":"m 192 961 l 168 628 l 93 628 l 71 961 l 192 961 m 399 961 l 375 628 l 301 628 l 278 961 l 399 961 z "},"%":{"ha":1244,"x_min":56,"x_max":1189,"o":"m 310 -17 l 842 919 l 919 919 l 388 -17 l 310 -17 m 56 918 l 483 918 l 483 364 l 56 364 l 56 918 m 153 439 l 386 439 l 386 844 l 153 844 l 153 439 m 761 547 l 1189 547 l 1189 -7 l 761 -7 l 761 547 m 858 68 l 1092 68 l 1092 474 l 858 474 l 858 68 z "},"&":{"ha":840,"x_min":0,"x_max":0,"o":""},"’":{"ha":288,"x_min":47,"x_max":254,"o":"m 254 961 q 226 869 242 917 q 192 776 210 821 q 156 692 174 731 q 125 631 139 654 l 47 622 q 70 694 58 653 q 93 778 82 735 q 114 866 104 822 q 129 947 124 910 l 254 961 z "},"(":{"ha":394,"x_min":89,"x_max":365,"o":"m 365 964 q 240 722 289 860 q 192 394 192 585 q 205 222 192 301 q 242 72 218 142 q 297 -57 265 3 q 365 -168 329 -117 l 271 -168 q 206 -69 238 -125 q 147 56 174 -14 q 105 210 121 125 q 89 396 89 294 q 106 583 89 497 q 148 738 122 668 q 206 864 174 808 q 271 964 238 919 l 365 964 z "},")":{"ha":394,"x_min":28,"x_max":304,"o":"m 28 -168 q 96 -57 64 -117 q 151 73 128 3 q 188 224 175 143 q 201 399 201 304 q 188 572 201 492 q 151 723 175 653 q 97 852 128 793 q 28 964 65 911 l 122 964 q 188 865 156 921 q 246 740 219 810 q 288 585 272 671 q 304 399 304 500 q 288 211 304 296 q 245 57 271 126 q 188 -69 219 -12 q 122 -168 156 -125 l 28 -168 z "},"*":{"ha":576,"x_min":42,"x_max":535,"o":"m 457 904 l 325 731 l 325 728 l 535 756 l 535 661 l 325 688 l 325 683 l 458 517 l 371 467 l 286 661 l 283 661 l 194 465 l 115 515 l 247 685 l 247 689 l 42 661 l 42 756 l 246 729 l 246 732 l 115 903 l 200 951 l 286 757 l 289 757 l 374 953 l 457 904 z "},"+":{"ha":1046,"x_min":56,"x_max":990,"o":"m 990 465 l 990 403 l 638 403 l 638 0 l 406 0 l 406 403 l 56 403 l 56 465 l 406 465 l 406 815 l 638 815 l 638 465 l 990 465 l 990 465 z "},",":{"ha":336,"x_min":56,"x_max":281,"o":"m 281 211 l 281 -126 l 165 -126 l 165 -15 l 56 -15 l 56 211 l 281 211 z "},"-":{"ha":604,"x_min":56,"x_max":549,"o":"m 549 403 l 56 403 l 56 465 l 549 465 l 549 403 l 549 403 z "},".":{"ha":336,"x_min":56,"x_max":279,"o":"m 56 208 l 279 208 l 279 -15 l 56 -15 l 56 208 z "},"/":{"ha":476,"x_min":-1,"x_max":481,"o":"m -1 -54 l 385 953 l 481 953 l 92 -54 l -1 -54 z "},":":{"ha":335,"x_min":56,"x_max":279,"o":"m 56 -15 l 56 208 l 279 208 l 279 -15 l 56 -15 m 56 657 l 279 657 l 279 433 l 56 433 l 56 657 z "},";":{"ha":336,"x_min":56,"x_max":281,"o":"m 56 211 l 281 211 l 281 -126 l 165 -126 l 165 -15 l 56 -15 l 56 211 m 56 657 l 281 657 l 281 432 l 56 432 l 56 657 z "},"<":{"ha":828,"x_min":92,"x_max":736,"o":"m 92 407 l 736 739 l 736 643 l 193 371 l 193 368 l 736 96 l 736 0 l 92 332 l 92 407 z "},"=":{"ha":604,"x_min":56,"x_max":549,"o":"m 549 489 l 56 489 l 56 551 l 549 551 l 549 489 m 549 217 l 56 217 l 56 279 l 549 279 l 549 217 z "},">":{"ha":828,"x_min":92,"x_max":736,"o":"m 736 331 l 92 0 l 92 96 l 639 368 l 639 371 l 92 643 l 92 739 l 736 410 l 736 331 z "},"?":{"ha":800,"x_min":56,"x_max":744,"o":"m 228 -15 l 228 210 l 453 210 l 453 -15 l 228 -15 m 744 936 l 744 526 l 519 526 l 519 883 l 281 883 l 281 818 l 56 818 l 56 936 l 744 936 m 228 458 l 228 274 l 453 274 l 453 408 l 639 408 l 639 458 l 228 458 l 228 458 l 228 458 z "},"A":{"ha":1046,"x_min":56,"x_max":992,"o":"m 289 936 l 289 467 l 640 467 l 640 403 l 56 403 l 56 936 l 289 936 m 56 0 l 56 350 l 289 350 l 289 0 l 56 0 m 992 936 l 992 0 l 757 0 l 757 869 l 406 869 l 406 936 l 992 936 z "},"B":{"ha":1047,"x_min":56,"x_max":992,"o":"m 56 0 l 56 936 l 289 936 l 289 0 l 56 0 m 992 468 l 992 468 l 992 0 l 992 0 l 757 0 l 406 0 l 406 53 l 757 53 l 757 404 l 406 404 l 406 468 l 757 468 l 992 468 m 757 519 l 757 871 l 406 871 l 406 936 l 757 936 l 757 936 l 992 936 l 992 519 l 757 519 z "},"C":{"ha":1047,"x_min":56,"x_max":992,"o":"m 992 936 l 992 872 l 289 872 l 289 0 l 56 0 l 56 936 l 992 936 m 406 0 l 406 51 l 992 51 l 992 0 l 406 0 z "},"D":{"ha":1047,"x_min":56,"x_max":992,"o":"m 56 0 l 56 936 l 289 936 l 289 0 l 56 0 m 992 936 l 992 0 l 407 0 l 407 53 l 758 53 l 758 871 l 407 871 l 407 936 l 992 936 z "},"E":{"ha":929,"x_min":56,"x_max":874,"o":"m 289 936 l 289 51 l 874 51 l 874 0 l 56 0 l 56 936 l 289 936 m 406 936 l 874 936 l 874 871 l 406 871 l 406 936 m 406 467 l 406 521 l 874 521 l 874 467 l 406 467 z "},"F":{"ha":929,"x_min":56,"x_max":874,"o":"m 874 936 l 874 869 l 289 869 l 289 0 l 56 0 l 56 936 l 874 936 m 407 467 l 407 518 l 874 518 l 874 467 l 407 467 z "},"G":{"ha":1044,"x_min":56,"x_max":992,"o":"m 289 872 l 289 53 l 640 53 l 640 0 l 56 0 l 56 936 l 992 936 l 992 872 l 289 872 m 992 521 l 992 521 l 992 0 l 758 0 l 758 468 l 407 468 l 407 521 l 992 521 z "},"H":{"ha":1047,"x_min":56,"x_max":992,"o":"m 56 0 l 56 936 l 290 936 l 290 0 l 56 0 m 757 0 l 757 404 l 992 404 l 992 0 l 757 0 m 757 936 l 992 936 l 992 468 l 992 468 l 407 468 l 407 519 l 757 519 l 757 936 z "},"I":{"ha":578,"x_min":56,"x_max":522,"o":"m 522 871 l 407 871 l 407 51 l 522 51 l 522 0 l 56 0 l 56 51 l 172 51 l 172 871 l 56 871 l 56 936 l 522 936 l 522 871 l 522 871 z "},"J":{"ha":1047,"x_min":56,"x_max":992,"o":"m 992 936 l 992 872 l 876 872 l 876 0 l 642 0 l 642 872 l 525 872 l 525 936 l 992 936 m 56 0 l 56 51 l 525 51 l 525 0 l 56 0 z "},"K":{"ha":1047,"x_min":56,"x_max":992,"o":"m 56 0 l 56 936 l 289 936 l 289 0 l 56 0 m 757 871 l 757 521 l 524 521 l 524 936 l 875 936 l 875 871 l 757 871 m 992 468 l 992 468 l 992 0 l 757 0 l 757 403 l 407 403 l 407 468 l 992 468 z "},"L":{"ha":814,"x_min":56,"x_max":758,"o":"m 56 0 l 56 936 l 289 936 l 289 0 l 56 0 m 407 53 l 758 53 l 758 0 l 407 0 l 407 53 z "},"M":{"ha":1282,"x_min":56,"x_max":1226,"o":"m 524 0 l 524 818 l 757 818 l 757 0 l 524 0 m 992 936 l 1226 936 l 1226 0 l 992 0 l 992 936 m 56 936 l 874 936 l 874 869 l 290 869 l 290 0 l 56 0 l 56 936 z "},"N":{"ha":1047,"x_min":56,"x_max":992,"o":"m 992 936 l 992 0 l 758 0 l 758 872 l 290 872 l 290 0 l 56 0 l 56 936 l 992 936 l 992 936 l 992 936 z "},"O":{"ha":1047,"x_min":56,"x_max":992,"o":"m 758 936 l 992 936 l 992 0 l 992 0 l 407 0 l 407 53 l 758 53 l 758 936 m 642 871 l 289 871 l 289 0 l 56 0 l 56 936 l 56 936 l 56 936 l 642 936 l 642 871 z "},"P":{"ha":1047,"x_min":56,"x_max":992,"o":"m 56 0 l 56 936 l 289 936 l 289 0 l 56 0 m 407 936 l 992 936 l 992 936 l 992 403 l 407 403 l 407 468 l 758 468 l 758 872 l 407 872 l 407 936 z "},"Q":{"ha":1047,"x_min":56,"x_max":992,"o":"m 757 936 l 992 936 l 992 0 l 992 0 l 640 0 l 640 -117 l 406 -117 l 406 53 l 757 53 l 757 936 m 640 872 l 290 872 l 290 0 l 56 0 l 56 936 l 56 936 l 56 936 l 640 936 l 640 872 z "},"R":{"ha":1047,"x_min":56,"x_max":992,"o":"m 56 0 l 56 936 l 289 936 l 289 0 l 56 0 m 875 350 l 875 51 l 992 51 l 992 0 l 642 0 l 642 0 l 642 350 l 875 350 m 406 936 l 992 936 l 992 936 l 992 403 l 406 403 l 406 465 l 758 465 l 758 871 l 406 871 l 406 936 z "},"S":{"ha":1047,"x_min":56,"x_max":992,"o":"m 642 53 l 642 468 l 874 468 l 874 0 l 56 0 l 56 53 l 642 53 m 174 936 l 992 936 l 992 869 l 406 869 l 406 403 l 174 403 l 174 936 l 174 936 z "},"T":{"ha":1047,"x_min":56,"x_max":992,"o":"m 642 936 l 642 936 l 642 0 l 406 0 l 406 872 l 56 872 l 56 936 l 642 936 m 758 936 l 992 936 l 992 872 l 758 872 l 758 936 z "},"U":{"ha":1047,"x_min":56,"x_max":992,"o":"m 289 936 l 289 117 l 56 117 l 56 936 l 289 936 m 758 936 l 992 936 l 992 117 l 758 117 l 758 936 m 56 0 l 56 53 l 992 53 l 992 0 l 56 0 z "},"V":{"ha":1047,"x_min":56,"x_max":992,"o":"m 290 0 l 290 53 l 757 53 l 757 0 l 290 0 m 56 117 l 56 936 l 290 936 l 290 117 l 56 117 m 757 936 l 992 936 l 992 117 l 757 117 l 757 936 z "},"W":{"ha":1282,"x_min":56,"x_max":1226,"o":"m 524 936 l 757 936 l 757 118 l 524 118 l 524 936 m 992 0 l 992 936 l 1226 936 l 1226 0 l 992 0 m 56 0 l 56 936 l 290 936 l 290 67 l 874 67 l 874 0 l 56 0 z "},"X":{"ha":1047,"x_min":56,"x_max":992,"o":"m 640 53 l 992 53 l 992 0 l 407 0 l 407 0 l 407 871 l 56 871 l 56 936 l 640 936 l 640 53 m 757 936 l 992 936 l 992 585 l 757 585 l 757 936 m 56 0 l 56 351 l 289 351 l 289 0 l 56 0 z "},"Y":{"ha":1047,"x_min":56,"x_max":992,"o":"m 407 0 l 407 351 l 640 351 l 640 0 l 407 0 m 56 403 l 56 936 l 290 936 l 290 403 l 56 403 m 758 936 l 992 936 l 992 403 l 992 403 l 407 403 l 407 468 l 758 468 l 758 936 z "},"Z":{"ha":1047,"x_min":56,"x_max":992,"o":"m 407 53 l 992 53 l 992 0 l 172 0 l 172 468 l 407 468 l 407 53 m 640 404 l 640 871 l 56 871 l 56 936 l 874 936 l 874 936 l 874 936 l 874 404 l 640 404 z "},"[":{"ha":458,"x_min":56,"x_max":403,"o":"m 288 -92 l 403 -92 l 403 -156 l 56 -156 l 56 953 l 403 953 l 403 889 l 288 889 l 288 -92 l 288 -92 z "},"\\":{"ha":474,"x_min":3,"x_max":475,"o":"m 381 -54 l 3 953 l 97 953 l 475 -54 l 381 -54 z "},"]":{"ha":458,"x_min":56,"x_max":403,"o":"m 171 -92 l 171 889 l 56 889 l 56 953 l 403 953 l 403 -156 l 56 -156 l 56 -92 l 171 -92 z "},"^":{"ha":828,"x_min":85,"x_max":744,"o":"m 647 263 l 415 801 l 413 801 l 181 263 l 85 263 l 371 903 l 458 903 l 744 263 l 647 263 z "},"_":{"ha":694,"x_min":0,"x_max":694,"o":"m 694 -111 l 694 -174 l 0 -174 l 0 -111 l 694 -111 z "},"‘":{"ha":288,"x_min":49,"x_max":256,"o":"m 49 622 q 77 714 61 665 q 111 808 93 763 q 147 891 129 853 q 178 953 164 929 l 256 961 q 233 890 244 931 q 210 805 221 849 q 189 717 199 761 q 174 636 179 674 l 49 622 z "},"a":{"ha":990,"x_min":46,"x_max":944,"o":"m 272 611 l 272 51 l 494 51 l 494 0 l 46 0 l 46 0 l 46 0 l 46 672 l 46 672 l 46 672 l 494 672 l 494 611 l 272 611 m 831 51 l 944 51 l 944 0 l 606 0 l 606 0 l 606 0 l 606 672 l 831 672 l 831 51 z "},"b":{"ha":893,"x_min":56,"x_max":838,"o":"m 278 986 l 278 50 l 503 50 l 503 0 l 56 0 l 56 986 l 278 986 m 390 610 l 390 672 l 838 672 l 838 0 l 613 0 l 613 610 l 390 610 z "},"c":{"ha":783,"x_min":56,"x_max":728,"o":"m 317 0 l 317 63 l 728 63 l 728 0 l 317 0 m 728 672 l 728 622 l 278 622 l 278 0 l 56 0 l 56 672 l 728 672 z "},"d":{"ha":893,"x_min":56,"x_max":838,"o":"m 615 986 l 838 986 l 838 0 l 390 0 l 390 50 l 615 50 l 615 986 m 503 610 l 281 610 l 281 0 l 56 0 l 56 672 l 503 672 l 503 610 z "},"e":{"ha":894,"x_min":56,"x_max":839,"o":"m 281 560 l 281 50 l 839 50 l 839 0 l 56 0 l 56 560 l 281 560 m 56 672 l 839 672 l 839 672 l 839 274 l 839 274 l 390 274 l 390 339 l 615 339 l 615 610 l 56 610 l 56 672 z "},"f":{"ha":899,"x_min":56,"x_max":843,"o":"m 56 611 l 56 672 l 168 672 l 168 611 l 56 611 m 843 938 l 506 938 l 506 672 l 729 672 l 729 611 l 506 611 l 506 0 l 281 0 l 281 986 l 281 986 l 843 986 l 843 938 z "},"g":{"ha":894,"x_min":56,"x_max":839,"o":"m 56 0 l 56 672 l 281 672 l 281 64 l 504 64 l 504 0 l 56 0 m 839 672 l 839 672 l 839 -275 l 839 -275 l 56 -275 l 56 -212 l 614 -212 l 614 622 l 392 622 l 392 672 l 839 672 z "},"h":{"ha":897,"x_min":56,"x_max":842,"o":"m 56 0 l 56 986 l 279 986 l 279 0 l 56 0 m 842 675 l 842 0 l 617 0 l 617 611 l 392 611 l 392 675 l 842 675 z "},"i":{"ha":536,"x_min":56,"x_max":504,"o":"m 390 63 l 504 63 l 504 0 l 169 0 l 169 0 l 169 613 l 56 613 l 56 676 l 390 676 l 390 676 l 390 63 m 390 972 l 390 746 l 169 746 l 169 972 l 390 972 z "},"j":{"ha":781,"x_min":56,"x_max":725,"o":"m 725 746 l 504 746 l 504 972 l 725 972 l 725 746 m 390 614 l 390 676 l 725 676 l 725 -275 l 504 -275 l 504 614 l 390 614 m 56 -275 l 56 -212 l 390 -212 l 390 -275 l 56 -275 z "},"k":{"ha":1004,"x_min":56,"x_max":949,"o":"m 56 0 l 56 986 l 281 986 l 281 0 l 56 0 m 501 385 l 501 672 l 501 672 l 501 672 l 839 672 l 839 611 l 728 611 l 728 385 l 501 385 m 949 335 l 949 335 l 949 0 l 728 0 l 728 286 l 390 286 l 390 335 l 949 335 l 949 335 z "},"l":{"ha":489,"x_min":56,"x_max":433,"o":"m 339 42 l 433 42 l 433 0 l 56 0 l 56 42 l 150 42 l 150 944 l 56 944 l 56 986 l 339 986 l 339 42 l 339 42 z "},"m":{"ha":1231,"x_min":56,"x_max":1175,"o":"m 56 672 l 56 672 l 839 672 l 839 622 l 279 622 l 279 0 l 56 0 l 56 672 m 503 0 l 503 558 l 728 558 l 728 0 l 503 0 m 951 672 l 1175 672 l 1175 0 l 951 0 l 951 672 z "},"n":{"ha":896,"x_min":56,"x_max":840,"o":"m 840 672 l 840 0 l 617 0 l 617 610 l 279 610 l 279 0 l 56 0 l 56 672 l 56 672 l 56 672 l 840 672 l 840 672 z "},"o":{"ha":894,"x_min":56,"x_max":839,"o":"m 503 610 l 281 610 l 281 0 l 56 0 l 56 672 l 503 672 l 503 610 m 614 672 l 839 672 l 839 0 l 392 0 l 392 50 l 614 50 l 614 672 z "},"p":{"ha":1007,"x_min":56,"x_max":951,"o":"m 56 -275 l 56 672 l 281 672 l 281 -275 l 56 -275 m 951 672 l 951 0 l 392 0 l 392 50 l 728 50 l 728 610 l 392 610 l 392 672 l 951 672 z "},"q":{"ha":1007,"x_min":56,"x_max":951,"o":"m 951 -275 l 726 -275 l 726 672 l 951 672 l 951 -275 m 615 672 l 615 610 l 279 610 l 279 50 l 615 50 l 615 0 l 56 0 l 56 672 l 615 672 z "},"r":{"ha":672,"x_min":56,"x_max":617,"o":"m 390 672 l 617 672 l 617 621 l 390 621 l 390 672 m 56 0 l 56 672 l 281 672 l 281 0 l 56 0 z "},"s":{"ha":897,"x_min":56,"x_max":842,"o":"m 842 672 l 842 611 l 393 611 l 393 274 l 169 274 l 169 672 l 842 672 m 504 49 l 504 338 l 728 338 l 728 0 l 56 0 l 56 49 l 504 49 z "},"t":{"ha":783,"x_min":56,"x_max":728,"o":"m 503 50 l 728 50 l 728 0 l 279 0 l 279 833 l 503 833 l 503 672 l 728 672 l 728 611 l 503 611 l 503 50 m 56 611 l 56 672 l 167 672 l 167 611 l 56 611 z "},"u":{"ha":897,"x_min":56,"x_max":840,"o":"m 56 0 l 56 51 l 840 51 l 840 0 l 56 0 m 279 672 l 279 86 l 56 86 l 56 672 l 279 672 m 617 672 l 840 672 l 840 86 l 617 86 l 617 672 z "},"v":{"ha":896,"x_min":56,"x_max":840,"o":"m 281 0 l 281 61 l 617 61 l 617 0 l 281 0 m 281 672 l 281 86 l 56 86 l 56 672 l 281 672 m 617 672 l 840 672 l 840 86 l 617 86 l 617 672 z "},"w":{"ha":1231,"x_min":56,"x_max":1175,"o":"m 56 0 l 56 672 l 279 672 l 279 50 l 839 50 l 839 0 l 56 0 m 503 672 l 728 672 l 728 114 l 503 114 l 503 672 m 951 0 l 951 672 l 1175 672 l 1175 0 l 951 0 z "},"x":{"ha":1006,"x_min":56,"x_max":951,"o":"m 615 50 l 951 50 l 951 0 l 393 0 l 393 610 l 56 610 l 56 672 l 615 672 l 615 50 m 728 672 l 951 672 l 951 447 l 728 447 l 728 672 m 56 0 l 56 224 l 279 224 l 279 0 l 56 0 z "},"y":{"ha":896,"x_min":56,"x_max":840,"o":"m 169 611 l 56 611 l 56 672 l 393 672 l 393 672 l 393 51 l 503 51 l 503 0 l 169 0 l 169 0 l 169 611 m 617 672 l 840 672 l 840 -275 l 56 -275 l 56 -214 l 617 -214 l 617 672 z "},"z":{"ha":899,"x_min":56,"x_max":842,"o":"m 728 672 l 728 274 l 504 274 l 504 611 l 56 611 l 56 672 l 728 672 m 393 49 l 842 49 l 842 0 l 169 0 l 169 338 l 393 338 l 393 49 z "},"{":{"ha":575,"x_min":56,"x_max":519,"o":"m 404 424 l 404 424 l 56 424 l 56 476 l 171 476 l 171 953 l 519 953 l 519 889 l 404 889 l 404 424 m 404 -90 l 519 -90 l 519 -156 l 171 -156 l 171 374 l 404 374 l 404 -90 z "},"|":{"ha":425,"x_min":111,"x_max":314,"o":"m 111 -347 l 111 1042 l 314 1042 l 314 -347 l 111 -347 l 111 -347 z "},"}":{"ha":575,"x_min":56,"x_max":519,"o":"m 519 374 l 519 308 l 404 308 l 404 -156 l 56 -156 l 56 -92 l 171 -92 l 171 374 l 519 374 m 171 422 l 171 886 l 56 886 l 56 953 l 404 953 l 404 422 l 171 422 z "},"~":{"ha":828,"x_min":65,"x_max":763,"o":"m 68 292 q 113 449 65 396 q 233 501 161 501 q 276 498 256 501 q 319 487 296 494 q 368 467 342 479 q 431 439 394 456 q 524 397 483 414 q 603 381 564 381 q 678 497 675 381 l 760 497 q 750 399 763 439 q 715 335 738 360 q 663 299 693 310 q 601 288 633 288 q 516 301 560 288 q 400 349 472 315 q 311 391 351 372 q 233 410 271 410 q 174 382 196 410 q 151 292 153 354 l 68 292 z "},"⁄":{"ha":168,"x_min":-218,"x_max":388,"o":"m -218 -15 l 310 918 l 388 918 l -140 -15 l -218 -15 z "},"'":{"ha":261,"x_min":71,"x_max":192,"o":"m 192 961 l 168 628 l 93 628 l 71 961 l 192 961 z "},"“":{"ha":492,"x_min":49,"x_max":461,"o":"m 49 622 q 77 714 61 665 q 111 808 93 763 q 147 891 129 853 q 178 953 164 929 l 256 961 q 233 890 244 931 q 210 805 221 849 q 189 717 199 761 q 174 636 179 674 l 49 622 m 254 622 q 283 714 267 665 q 317 808 299 763 q 352 891 335 853 q 383 953 369 929 l 461 961 q 438 890 450 931 q 414 805 425 849 q 394 717 403 761 q 379 636 385 674 l 254 622 z "},"‹":{"ha":354,"x_min":40,"x_max":322,"o":"m 138 350 l 322 94 l 224 94 l 40 350 l 224 606 l 322 606 l 138 350 z "},"›":{"ha":354,"x_min":33,"x_max":315,"o":"m 33 606 l 131 606 l 315 350 l 131 94 l 33 94 l 218 350 l 33 606 z "},"„":{"ha":494,"x_min":28,"x_max":440,"o":"m 28 -164 q 51 -92 39 -133 q 75 -8 64 -51 q 95 80 86 36 q 110 161 104 124 l 235 175 q 206 83 222 131 q 172 -10 190 35 q 137 -94 154 -56 q 106 -156 119 -132 l 28 -164 m 233 -164 q 256 -92 244 -133 q 279 -8 268 -51 q 300 80 290 36 q 315 161 310 124 l 440 175 q 412 83 428 131 q 378 -10 396 35 q 342 -94 360 -56 q 311 -156 325 -132 l 233 -164 z "},"”":{"ha":492,"x_min":47,"x_max":460,"o":"m 254 961 q 226 869 242 917 q 192 776 210 821 q 156 692 174 731 q 125 631 139 654 l 47 622 q 71 694 58 653 q 94 778 83 735 q 115 866 106 822 q 129 947 124 910 l 254 961 m 460 961 q 431 869 447 917 q 397 776 415 821 q 362 692 379 731 q 331 631 344 654 l 253 622 q 276 694 264 653 q 299 778 288 735 q 319 866 310 822 q 335 947 329 910 l 460 961 z "},"…":{"ha":1365,"x_min":56,"x_max":1310,"o":"m 56 208 l 279 208 l 279 -15 l 56 -15 l 56 208 m 571 208 l 794 208 l 794 -15 l 571 -15 l 571 208 m 1086 208 l 1310 208 l 1310 -15 l 1086 -15 l 1086 208 z "},"`":{"ha":417,"x_min":31,"x_max":286,"o":"m 164 963 l 286 764 l 200 764 l 31 963 l 164 963 z "},"—":{"ha":1389,"x_min":42,"x_max":1347,"o":"m 1347 394 l 1347 311 l 42 311 l 42 394 l 1347 394 z "},"º":{"ha":628,"x_min":56,"x_max":572,"o":"m 203 772 l 203 369 l 56 369 l 56 811 l 350 811 l 350 772 l 203 772 m 572 811 l 572 369 l 278 369 l 278 403 l 425 403 l 425 811 l 572 811 z "},"÷":{"ha":1046,"x_min":56,"x_max":990,"o":"m 990 403 l 638 403 l 406 403 l 56 403 l 56 465 l 406 465 l 638 465 l 990 465 l 990 403 m 406 250 l 638 250 l 638 46 l 406 46 l 406 250 m 406 822 l 638 822 l 638 618 l 406 618 l 406 822 z "},"ﬀ":{"ha":1510,"x_min":56,"x_max":1454,"o":"m 506 938 l 506 672 l 779 672 l 779 611 l 506 611 l 506 0 l 281 0 l 281 986 l 843 986 l 843 938 l 506 938 m 1117 938 l 1117 672 l 1340 672 l 1340 611 l 1117 611 l 1117 0 l 892 0 l 892 986 l 1454 986 l 1454 938 l 1117 938 m 56 672 l 168 672 l 168 611 l 56 611 l 56 672 z "},"≤":{"ha":828,"x_min":92,"x_max":736,"o":"m 92 406 l 92 488 l 736 754 l 736 663 l 206 447 l 206 444 l 736 231 l 736 138 l 92 406 m 94 0 l 94 81 l 736 81 l 736 0 l 94 0 z "},"≥":{"ha":828,"x_min":92,"x_max":736,"o":"m 92 138 l 92 231 l 622 444 l 622 447 l 92 663 l 92 754 l 736 488 l 736 406 l 92 138 m 92 0 l 92 81 l 733 81 l 733 0 l 92 0 z "},"◊":{"ha":725,"x_min":63,"x_max":663,"o":"m 410 -43 l 314 -43 l 63 450 l 314 944 l 410 944 l 663 450 l 410 -43 m 376 819 q 363 851 367 833 l 360 851 q 353 835 357 843 q 344 819 349 826 l 167 453 l 349 82 q 356 67 353 75 q 363 50 360 58 l 365 50 q 372 67 368 58 q 379 82 376 75 l 557 449 l 376 819 z "},"Ω":{"ha":979,"x_min":42,"x_max":938,"o":"m 733 96 l 938 96 l 938 0 l 586 0 l 586 76 q 665 147 628 106 q 731 242 703 189 q 776 357 760 294 q 793 490 793 419 q 774 619 793 554 q 718 737 756 685 q 624 822 681 789 q 493 854 568 854 q 362 823 419 854 q 265 740 304 792 q 206 623 226 689 q 186 488 186 557 q 203 359 186 422 q 249 242 219 296 q 315 145 278 188 q 394 76 353 103 l 394 0 l 42 0 l 42 96 l 244 96 l 244 100 q 176 169 210 129 q 117 260 143 210 q 76 371 92 311 q 60 497 60 431 q 93 681 60 597 q 185 826 126 765 q 323 919 243 886 q 496 953 403 953 q 672 918 593 953 q 805 824 750 883 q 889 683 860 764 q 918 510 918 603 q 902 376 918 438 q 860 263 886 314 q 801 170 835 211 q 733 100 768 129 l 733 96 z "}," ":{"ha":294,"x_min":0,"x_max":0,"o":""},"ç":{"ha":783,"x_min":56,"x_max":728,"o":"m 460 4 l 414 -69 q 481 -99 451 -74 q 511 -165 511 -125 q 499 -217 511 -196 q 467 -252 488 -239 q 421 -272 447 -265 q 365 -278 394 -278 q 315 -272 340 -278 q 271 -254 289 -265 l 292 -194 q 367 -214 328 -214 q 409 -204 390 -214 q 426 -171 428 -194 q 397 -130 426 -143 q 318 -112 367 -117 l 383 4 l 460 4 m 317 63 l 728 63 l 728 0 l 317 0 l 317 63 m 728 672 l 728 622 l 278 622 l 278 0 l 56 0 l 56 672 l 728 672 z "},"é":{"ha":894,"x_min":56,"x_max":839,"o":"m 575 963 l 406 764 l 319 764 l 442 963 l 575 963 m 281 560 l 281 50 l 839 50 l 839 0 l 56 0 l 56 560 l 281 560 m 56 672 l 839 672 l 839 672 l 839 274 l 839 274 l 390 274 l 390 339 l 615 339 l 615 610 l 56 610 l 56 672 z "},"è":{"ha":894,"x_min":56,"x_max":839,"o":"m 281 560 l 281 50 l 839 50 l 839 0 l 56 0 l 56 560 l 281 560 m 56 672 l 839 672 l 839 672 l 839 274 l 839 274 l 390 274 l 390 339 l 615 339 l 615 610 l 56 610 l 56 672 m 453 963 l 575 764 l 489 764 l 319 963 l 453 963 z "},"ê":{"ha":894,"x_min":56,"x_max":839,"o":"m 488 963 l 621 764 l 528 764 l 447 894 l 444 894 l 364 764 l 272 764 l 403 963 l 488 963 m 281 560 l 281 50 l 839 50 l 839 0 l 56 0 l 56 560 l 281 560 m 56 672 l 839 672 l 839 672 l 839 274 l 839 274 l 390 274 l 390 339 l 615 339 l 615 610 l 56 610 l 56 672 z "},"ë":{"ha":894,"x_min":56,"x_max":839,"o":"m 317 792 q 268 813 288 792 q 249 863 249 835 q 269 913 249 892 q 319 933 289 933 q 367 913 347 933 q 386 863 386 893 q 367 813 386 835 q 317 792 349 792 m 575 792 q 526 813 544 792 q 507 863 507 835 q 527 913 507 892 q 576 933 547 933 q 625 913 606 933 q 644 863 644 893 q 626 813 644 835 q 575 792 607 792 m 281 50 l 839 50 l 839 0 l 56 0 l 56 560 l 281 560 l 281 50 m 839 672 l 839 274 l 390 274 l 390 339 l 615 339 l 615 610 l 56 610 l 56 672 l 839 672 z "},"å":{"ha":990,"x_min":46,"x_max":944,"o":"m 496 746 q 395 783 435 746 q 356 872 356 819 q 394 965 356 928 q 497 1003 432 1003 q 597 966 560 1003 q 635 872 635 929 q 595 782 635 818 q 496 746 556 746 m 496 797 q 547 819 528 797 q 567 874 567 842 q 547 928 567 906 q 494 951 528 951 q 444 928 463 951 q 426 872 426 904 q 445 821 426 844 q 496 797 464 797 m 272 51 l 494 51 l 494 0 l 46 0 l 46 672 l 494 672 l 494 611 l 272 611 l 272 51 m 944 51 l 944 0 l 606 0 l 606 672 l 831 672 l 831 51 l 944 51 z "},"ã":{"ha":990,"x_min":46,"x_max":944,"o":"m 324 788 q 347 894 321 856 q 418 932 374 932 q 461 923 442 932 q 504 901 481 914 q 535 885 521 892 q 564 878 550 878 q 589 890 579 878 q 601 936 599 901 l 667 936 q 572 796 669 796 q 528 805 549 796 q 486 825 508 814 q 452 844 465 838 q 426 850 439 850 q 401 833 410 850 q 390 788 393 817 l 324 788 m 272 51 l 494 51 l 494 0 l 46 0 l 46 672 l 494 672 l 494 611 l 272 611 l 272 51 m 944 51 l 944 0 l 606 0 l 606 672 l 831 672 l 831 51 l 944 51 z "},"ä":{"ha":990,"x_min":46,"x_max":944,"o":"m 365 792 q 317 813 336 792 q 297 863 297 835 q 317 913 297 892 q 368 933 338 933 q 415 913 396 933 q 435 863 435 893 q 416 813 435 835 q 365 792 397 792 m 624 792 q 574 813 593 792 q 556 863 556 835 q 576 913 556 892 q 625 933 596 933 q 674 913 654 933 q 693 863 693 893 q 674 813 693 835 q 624 792 656 792 m 272 51 l 494 51 l 494 0 l 46 0 l 46 672 l 494 672 l 494 611 l 272 611 l 272 51 m 944 51 l 944 0 l 606 0 l 606 672 l 831 672 l 831 51 l 944 51 z "},"â":{"ha":990,"x_min":46,"x_max":944,"o":"m 536 963 l 669 764 l 576 764 l 496 894 l 493 894 l 413 764 l 321 764 l 451 963 l 536 963 m 272 611 l 272 51 l 494 51 l 494 0 l 46 0 l 46 0 l 46 0 l 46 672 l 46 672 l 46 672 l 494 672 l 494 611 l 272 611 m 831 51 l 944 51 l 944 0 l 606 0 l 606 0 l 606 0 l 606 672 l 831 672 l 831 51 z "},"à":{"ha":990,"x_min":46,"x_max":944,"o":"m 272 611 l 272 51 l 494 51 l 494 0 l 46 0 l 46 0 l 46 0 l 46 672 l 46 672 l 46 672 l 494 672 l 494 611 l 272 611 m 831 51 l 944 51 l 944 0 l 606 0 l 606 0 l 606 0 l 606 672 l 831 672 l 831 51 m 500 963 l 622 764 l 536 764 l 367 963 l 500 963 z "},"á":{"ha":990,"x_min":46,"x_max":944,"o":"m 622 963 l 453 764 l 367 764 l 489 963 l 622 963 m 272 611 l 272 51 l 494 51 l 494 0 l 46 0 l 46 0 l 46 0 l 46 672 l 46 672 l 46 672 l 494 672 l 494 611 l 272 611 m 831 51 l 944 51 l 944 0 l 606 0 l 606 0 l 606 0 l 606 672 l 831 672 l 831 51 z "},"Ü":{"ha":1047,"x_min":56,"x_max":992,"o":"m 393 1056 q 344 1077 364 1056 q 325 1126 325 1099 q 345 1176 325 1156 q 396 1197 365 1197 q 443 1177 424 1197 q 463 1126 463 1157 q 444 1077 463 1099 q 393 1056 425 1056 m 651 1056 q 602 1077 621 1056 q 583 1126 583 1099 q 603 1176 583 1156 q 653 1197 624 1197 q 701 1177 682 1197 q 721 1126 721 1157 q 702 1077 721 1099 q 651 1056 683 1056 m 289 117 l 56 117 l 56 936 l 289 936 l 289 117 m 992 936 l 992 117 l 758 117 l 758 936 l 992 936 m 56 53 l 992 53 l 992 0 l 56 0 l 56 53 z "},"Ö":{"ha":1047,"x_min":56,"x_max":992,"o":"m 393 1056 q 344 1077 364 1056 q 325 1126 325 1099 q 345 1176 325 1156 q 396 1197 365 1197 q 443 1177 424 1197 q 463 1126 463 1157 q 444 1077 463 1099 q 393 1056 425 1056 m 651 1056 q 602 1077 621 1056 q 583 1126 583 1099 q 603 1176 583 1156 q 653 1197 624 1197 q 701 1177 682 1197 q 721 1126 721 1157 q 702 1077 721 1099 q 651 1056 683 1056 m 992 936 l 992 0 l 407 0 l 407 53 l 758 53 l 758 936 l 992 936 m 289 871 l 289 0 l 56 0 l 56 936 l 642 936 l 642 871 l 289 871 z "},"Ñ":{"ha":1047,"x_min":56,"x_max":992,"o":"m 353 1051 q 376 1158 350 1119 q 447 1196 403 1196 q 490 1187 471 1196 q 533 1165 510 1178 q 565 1149 550 1156 q 593 1142 579 1142 q 618 1153 608 1142 q 631 1200 628 1165 l 696 1200 q 601 1060 699 1060 q 558 1069 578 1060 q 515 1089 538 1078 q 481 1108 494 1101 q 456 1114 468 1114 q 431 1097 439 1114 q 419 1051 422 1081 l 353 1051 m 992 0 l 758 0 l 758 872 l 290 872 l 290 0 l 56 0 l 56 936 l 992 936 l 992 0 z "},"É":{"ha":929,"x_min":56,"x_max":874,"o":"m 592 1226 l 422 1028 l 336 1028 l 458 1226 l 592 1226 m 289 936 l 289 51 l 874 51 l 874 0 l 56 0 l 56 936 l 289 936 m 406 936 l 874 936 l 874 871 l 406 871 l 406 936 m 406 467 l 406 521 l 874 521 l 874 467 l 406 467 z "},"Ç":{"ha":1047,"x_min":56,"x_max":992,"o":"m 592 4 l 546 -69 q 613 -99 583 -74 q 643 -165 643 -125 q 631 -217 643 -196 q 599 -252 619 -239 q 553 -272 579 -265 q 497 -278 526 -278 q 447 -272 472 -278 q 403 -254 421 -265 l 424 -194 q 499 -214 460 -214 q 541 -204 522 -214 q 558 -171 560 -194 q 528 -130 558 -143 q 450 -112 499 -117 l 515 4 l 592 4 m 992 936 l 992 872 l 289 872 l 289 0 l 56 0 l 56 936 l 992 936 m 406 51 l 992 51 l 992 0 l 406 0 l 406 51 z "},"Å":{"ha":1046,"x_min":56,"x_max":992,"o":"m 524 1010 q 423 1047 463 1010 q 383 1136 383 1083 q 422 1229 383 1192 q 525 1267 460 1267 q 625 1230 588 1267 q 663 1136 663 1193 q 623 1046 663 1082 q 524 1010 583 1010 m 524 1061 q 575 1083 556 1061 q 594 1138 594 1106 q 575 1192 594 1169 q 522 1215 556 1215 q 472 1192 490 1215 q 454 1136 454 1168 q 473 1085 454 1108 q 524 1061 492 1061 m 289 467 l 640 467 l 640 403 l 56 403 l 56 936 l 289 936 l 289 467 m 56 350 l 289 350 l 289 0 l 56 0 l 56 350 m 992 936 l 992 0 l 757 0 l 757 869 l 406 869 l 406 936 l 992 936 z "},"Ä":{"ha":1046,"x_min":56,"x_max":992,"o":"m 393 1056 q 344 1077 364 1056 q 325 1126 325 1099 q 345 1176 325 1156 q 396 1197 365 1197 q 443 1177 424 1197 q 463 1126 463 1157 q 444 1077 463 1099 q 393 1056 425 1056 m 651 1056 q 602 1077 621 1056 q 583 1126 583 1099 q 603 1176 583 1156 q 653 1197 624 1197 q 701 1177 682 1197 q 721 1126 721 1157 q 702 1077 721 1099 q 651 1056 683 1056 m 289 467 l 640 467 l 640 403 l 56 403 l 56 936 l 289 936 l 289 467 m 56 350 l 289 350 l 289 0 l 56 0 l 56 350 m 992 936 l 992 0 l 757 0 l 757 869 l 406 869 l 406 936 l 992 936 z "},"í":{"ha":558,"x_min":35,"x_max":504,"o":"m 504 63 l 504 0 l 169 0 l 169 0 l 169 613 l 56 613 l 56 676 l 390 676 l 390 676 l 390 63 l 504 63 m 290 963 l 121 764 l 35 764 l 157 963 l 290 963 z "},"ì":{"ha":560,"x_min":35,"x_max":504,"o":"m 504 63 l 504 0 l 169 0 l 169 0 l 169 613 l 56 613 l 56 676 l 390 676 l 390 676 l 390 63 l 504 63 m 168 963 l 290 764 l 204 764 l 35 963 l 168 963 z "},"ñ":{"ha":896,"x_min":56,"x_max":840,"o":"m 276 788 q 300 894 274 856 q 371 932 326 932 q 414 923 394 932 q 457 901 433 914 q 488 885 474 892 q 517 878 503 878 q 542 890 532 878 q 554 936 551 901 l 619 936 q 525 796 622 796 q 481 805 501 796 q 439 825 461 814 q 405 844 418 838 q 379 850 392 850 q 354 833 363 850 q 343 788 346 817 l 276 788 m 840 0 l 617 0 l 617 610 l 279 610 l 279 0 l 56 0 l 56 672 l 840 672 l 840 0 z "},"ó":{"ha":894,"x_min":56,"x_max":839,"o":"m 575 963 l 406 764 l 319 764 l 442 963 l 575 963 m 503 610 l 281 610 l 281 0 l 56 0 l 56 672 l 503 672 l 503 610 m 614 672 l 839 672 l 839 0 l 392 0 l 392 50 l 614 50 l 614 672 z "},"ò":{"ha":894,"x_min":56,"x_max":839,"o":"m 503 610 l 281 610 l 281 0 l 56 0 l 56 672 l 503 672 l 503 610 m 614 672 l 839 672 l 839 0 l 392 0 l 392 50 l 614 50 l 614 672 m 453 963 l 575 764 l 489 764 l 319 963 l 453 963 z "},"ô":{"ha":894,"x_min":56,"x_max":839,"o":"m 488 963 l 621 764 l 528 764 l 447 894 l 444 894 l 364 764 l 272 764 l 403 963 l 488 963 m 503 610 l 281 610 l 281 0 l 56 0 l 56 672 l 503 672 l 503 610 m 614 672 l 839 672 l 839 0 l 392 0 l 392 50 l 614 50 l 614 672 z "},"ö":{"ha":894,"x_min":56,"x_max":839,"o":"m 317 792 q 268 813 288 792 q 249 863 249 835 q 269 913 249 892 q 319 933 289 933 q 367 913 347 933 q 386 863 386 893 q 367 813 386 835 q 317 792 349 792 m 575 792 q 526 813 544 792 q 507 863 507 835 q 527 913 507 892 q 576 933 547 933 q 625 913 606 933 q 644 863 644 893 q 626 813 644 835 q 575 792 607 792 m 281 610 l 281 0 l 56 0 l 56 672 l 503 672 l 503 610 l 281 610 m 839 672 l 839 0 l 392 0 l 392 50 l 614 50 l 614 672 l 839 672 z "},"õ":{"ha":894,"x_min":56,"x_max":839,"o":"m 276 788 q 300 894 274 856 q 371 932 326 932 q 414 923 394 932 q 457 901 433 914 q 488 885 474 892 q 517 878 503 878 q 542 890 532 878 q 554 936 551 901 l 619 936 q 525 796 622 796 q 481 805 501 796 q 439 825 461 814 q 405 844 418 838 q 379 850 392 850 q 354 833 363 850 q 343 788 346 817 l 276 788 m 281 610 l 281 0 l 56 0 l 56 672 l 503 672 l 503 610 l 281 610 m 839 672 l 839 0 l 392 0 l 392 50 l 614 50 l 614 672 l 839 672 z "},"ú":{"ha":897,"x_min":56,"x_max":840,"o":"m 576 963 l 407 764 l 321 764 l 443 963 l 576 963 m 56 0 l 56 51 l 840 51 l 840 0 l 56 0 m 279 672 l 279 86 l 56 86 l 56 672 l 279 672 m 617 672 l 840 672 l 840 86 l 617 86 l 617 672 z "},"ù":{"ha":897,"x_min":56,"x_max":840,"o":"m 56 0 l 56 51 l 840 51 l 840 0 l 56 0 m 279 672 l 279 86 l 56 86 l 56 672 l 279 672 m 617 672 l 840 672 l 840 86 l 617 86 l 617 672 m 454 963 l 576 764 l 490 764 l 321 963 l 454 963 z "},"û":{"ha":897,"x_min":56,"x_max":840,"o":"m 489 963 l 622 764 l 529 764 l 449 894 l 446 894 l 365 764 l 274 764 l 404 963 l 489 963 m 56 0 l 56 51 l 840 51 l 840 0 l 56 0 m 279 672 l 279 86 l 56 86 l 56 672 l 279 672 m 617 672 l 840 672 l 840 86 l 617 86 l 617 672 z "},"ü":{"ha":897,"x_min":56,"x_max":840,"o":"m 318 792 q 269 813 289 792 q 250 863 250 835 q 270 913 250 892 q 321 933 290 933 q 368 913 349 933 q 388 863 388 893 q 369 813 388 835 q 318 792 350 792 m 576 792 q 527 813 546 792 q 508 863 508 835 q 528 913 508 892 q 578 933 549 933 q 626 913 607 933 q 646 863 646 893 q 627 813 646 835 q 576 792 608 792 m 56 51 l 840 51 l 840 0 l 56 0 l 56 51 m 279 86 l 56 86 l 56 672 l 279 672 l 279 86 m 840 672 l 840 86 l 617 86 l 617 672 l 840 672 z "},"À":{"ha":1046,"x_min":56,"x_max":992,"o":"m 289 936 l 289 467 l 640 467 l 640 403 l 56 403 l 56 936 l 289 936 m 56 0 l 56 350 l 289 350 l 289 0 l 56 0 m 992 936 l 992 0 l 757 0 l 757 869 l 406 869 l 406 936 l 992 936 m 528 1226 l 650 1028 l 564 1028 l 394 1226 l 528 1226 z "},"Ã":{"ha":1046,"x_min":56,"x_max":992,"o":"m 351 1051 q 375 1158 349 1119 q 446 1196 401 1196 q 489 1187 469 1196 q 532 1165 508 1178 q 563 1149 549 1156 q 592 1142 578 1142 q 617 1153 607 1142 q 629 1200 626 1165 l 694 1200 q 600 1060 697 1060 q 556 1069 576 1060 q 514 1089 536 1078 q 480 1108 493 1101 q 454 1114 467 1114 q 429 1097 438 1114 q 418 1051 421 1081 l 351 1051 m 289 467 l 640 467 l 640 403 l 56 403 l 56 936 l 289 936 l 289 467 m 56 350 l 289 350 l 289 0 l 56 0 l 56 350 m 992 936 l 992 0 l 757 0 l 757 869 l 406 869 l 406 936 l 992 936 z "},"Õ":{"ha":1047,"x_min":56,"x_max":992,"o":"m 353 1051 q 376 1158 350 1119 q 447 1196 403 1196 q 490 1187 471 1196 q 533 1165 510 1178 q 565 1149 550 1156 q 593 1142 579 1142 q 618 1153 608 1142 q 631 1200 628 1165 l 696 1200 q 601 1060 699 1060 q 558 1069 578 1060 q 515 1089 538 1078 q 481 1108 494 1101 q 456 1114 468 1114 q 431 1097 439 1114 q 419 1051 422 1081 l 353 1051 m 992 936 l 992 0 l 407 0 l 407 53 l 758 53 l 758 936 l 992 936 m 289 871 l 289 0 l 56 0 l 56 936 l 642 936 l 642 871 l 289 871 z "},"ÿ":{"ha":896,"x_min":56,"x_max":840,"o":"m 318 792 q 269 813 289 792 q 250 863 250 835 q 270 913 250 892 q 321 933 290 933 q 368 913 349 933 q 388 863 388 893 q 369 813 388 835 q 318 792 350 792 m 576 792 q 527 813 546 792 q 508 863 508 835 q 528 913 508 892 q 578 933 549 933 q 626 913 607 933 q 646 863 646 893 q 627 813 646 835 q 576 792 608 792 m 169 611 l 56 611 l 56 672 l 393 672 l 393 51 l 503 51 l 503 0 l 169 0 l 169 611 m 840 672 l 840 -275 l 56 -275 l 56 -214 l 617 -214 l 617 672 l 840 672 z "},"Ÿ":{"ha":1047,"x_min":56,"x_max":992,"o":"m 393 1056 q 344 1077 364 1056 q 325 1126 325 1099 q 345 1176 325 1156 q 396 1197 365 1197 q 443 1177 424 1197 q 463 1126 463 1157 q 444 1077 463 1099 q 393 1056 425 1056 m 651 1056 q 602 1077 621 1056 q 583 1126 583 1099 q 603 1176 583 1156 q 653 1197 624 1197 q 701 1177 682 1197 q 721 1126 721 1157 q 702 1077 721 1099 q 651 1056 683 1056 m 407 351 l 640 351 l 640 0 l 407 0 l 407 351 m 56 936 l 290 936 l 290 403 l 56 403 l 56 936 m 992 936 l 992 403 l 407 403 l 407 468 l 758 468 l 758 936 l 992 936 z "},"¿":{"ha":800,"x_min":56,"x_max":744,"o":"m 228 676 l 228 451 l 453 451 l 453 676 l 228 676 m 744 -275 l 744 135 l 519 135 l 519 -222 l 281 -222 l 281 -157 l 56 -157 l 56 -275 l 744 -275 m 228 203 l 228 388 l 453 388 l 453 253 l 639 253 l 639 203 l 228 203 l 228 203 l 228 203 z "},"¡":{"ha":336,"x_min":56,"x_max":281,"o":"m 56 -275 l 281 -275 l 281 389 l 56 389 l 56 -275 m 56 676 l 56 451 l 281 451 l 281 676 l 56 676 z "},"ª":{"ha":701,"x_min":56,"x_max":646,"o":"m 204 403 l 350 403 l 350 369 l 56 369 l 56 369 l 56 369 l 56 811 l 56 811 l 56 811 l 350 811 l 350 771 l 204 771 l 204 403 m 646 403 l 646 369 l 422 369 l 422 369 l 422 369 l 422 811 l 571 811 l 571 403 l 646 403 z "},"Â":{"ha":1046,"x_min":56,"x_max":992,"o":"m 564 1226 l 697 1028 l 604 1028 l 524 1158 l 521 1158 l 440 1028 l 349 1028 l 479 1226 l 564 1226 m 289 936 l 289 467 l 640 467 l 640 403 l 56 403 l 56 936 l 289 936 m 56 0 l 56 350 l 289 350 l 289 0 l 56 0 m 992 936 l 992 0 l 757 0 l 757 869 l 406 869 l 406 936 l 992 936 z "},"Ê":{"ha":929,"x_min":56,"x_max":874,"o":"m 506 1226 l 639 1028 l 546 1028 l 465 1158 l 463 1158 l 382 1028 l 290 1028 l 421 1226 l 506 1226 m 289 936 l 289 51 l 874 51 l 874 0 l 56 0 l 56 936 l 289 936 m 406 936 l 874 936 l 874 871 l 406 871 l 406 936 m 406 467 l 406 521 l 874 521 l 874 467 l 406 467 z "},"Á":{"ha":1046,"x_min":56,"x_max":992,"o":"m 650 1226 l 481 1028 l 394 1028 l 517 1226 l 650 1226 m 289 936 l 289 467 l 640 467 l 640 403 l 56 403 l 56 936 l 289 936 m 56 0 l 56 350 l 289 350 l 289 0 l 56 0 m 992 936 l 992 0 l 757 0 l 757 869 l 406 869 l 406 936 l 992 936 z "},"Ë":{"ha":929,"x_min":56,"x_max":874,"o":"m 335 1056 q 286 1077 306 1056 q 267 1126 267 1099 q 287 1176 267 1156 q 338 1197 307 1197 q 385 1177 365 1197 q 404 1126 404 1157 q 385 1077 404 1099 q 335 1056 367 1056 m 593 1056 q 544 1077 563 1056 q 525 1126 525 1099 q 545 1176 525 1156 q 594 1197 565 1197 q 643 1177 624 1197 q 663 1126 663 1157 q 644 1077 663 1099 q 593 1056 625 1056 m 289 51 l 874 51 l 874 0 l 56 0 l 56 936 l 289 936 l 289 51 m 874 936 l 874 871 l 406 871 l 406 936 l 874 936 m 406 521 l 874 521 l 874 467 l 406 467 l 406 521 z "},"È":{"ha":929,"x_min":56,"x_max":874,"o":"m 289 936 l 289 51 l 874 51 l 874 0 l 56 0 l 56 936 l 289 936 m 406 936 l 874 936 l 874 871 l 406 871 l 406 936 m 406 467 l 406 521 l 874 521 l 874 467 l 406 467 m 469 1226 l 592 1028 l 506 1028 l 336 1226 l 469 1226 z "},"Í":{"ha":578,"x_min":56,"x_max":522,"o":"m 417 1226 l 247 1028 l 161 1028 l 283 1226 l 417 1226 m 522 871 l 407 871 l 407 51 l 522 51 l 522 0 l 56 0 l 56 51 l 172 51 l 172 871 l 56 871 l 56 936 l 522 936 l 522 871 z "},"Î":{"ha":578,"x_min":56,"x_max":522,"o":"m 329 1226 l 463 1028 l 369 1028 l 289 1158 l 286 1158 l 206 1028 l 114 1028 l 244 1226 l 329 1226 m 522 871 l 407 871 l 407 51 l 522 51 l 522 0 l 56 0 l 56 51 l 172 51 l 172 871 l 56 871 l 56 936 l 522 936 l 522 871 z "},"Ï":{"ha":578,"x_min":56,"x_max":522,"o":"m 158 1056 q 110 1077 129 1056 q 90 1126 90 1099 q 110 1176 90 1156 q 161 1197 131 1197 q 208 1177 189 1197 q 228 1126 228 1157 q 209 1077 228 1099 q 158 1056 190 1056 m 417 1056 q 367 1077 386 1056 q 349 1126 349 1099 q 369 1176 349 1156 q 418 1197 389 1197 q 467 1177 447 1197 q 486 1126 486 1157 q 467 1077 486 1099 q 417 1056 449 1056 m 407 871 l 407 51 l 522 51 l 522 0 l 56 0 l 56 51 l 172 51 l 172 871 l 56 871 l 56 936 l 522 936 l 522 871 l 407 871 z "},"Ì":{"ha":578,"x_min":56,"x_max":522,"o":"m 522 871 l 407 871 l 407 51 l 522 51 l 522 0 l 56 0 l 56 51 l 172 51 l 172 871 l 56 871 l 56 936 l 522 936 l 522 871 l 522 871 m 294 1226 l 417 1028 l 331 1028 l 161 1226 l 294 1226 z "},"Ó":{"ha":1047,"x_min":56,"x_max":992,"o":"m 651 1226 l 482 1028 l 396 1028 l 518 1226 l 651 1226 m 758 936 l 992 936 l 992 0 l 992 0 l 407 0 l 407 53 l 758 53 l 758 936 m 642 871 l 289 871 l 289 0 l 56 0 l 56 936 l 56 936 l 56 936 l 642 936 l 642 871 z "},"Ô":{"ha":1047,"x_min":56,"x_max":992,"o":"m 564 1226 l 697 1028 l 604 1028 l 524 1158 l 521 1158 l 440 1028 l 349 1028 l 479 1226 l 564 1226 m 758 936 l 992 936 l 992 0 l 992 0 l 407 0 l 407 53 l 758 53 l 758 936 m 642 871 l 289 871 l 289 0 l 56 0 l 56 936 l 56 936 l 56 936 l 642 936 l 642 871 z "},"Ò":{"ha":1047,"x_min":56,"x_max":992,"o":"m 758 936 l 992 936 l 992 0 l 992 0 l 407 0 l 407 53 l 758 53 l 758 936 m 642 871 l 289 871 l 289 0 l 56 0 l 56 936 l 56 936 l 56 936 l 642 936 l 642 871 m 529 1226 l 651 1028 l 565 1028 l 396 1226 l 529 1226 z "},"Ú":{"ha":1047,"x_min":56,"x_max":992,"o":"m 651 1226 l 482 1028 l 396 1028 l 518 1226 l 651 1226 m 289 936 l 289 117 l 56 117 l 56 936 l 289 936 m 758 936 l 992 936 l 992 117 l 758 117 l 758 936 m 56 0 l 56 53 l 992 53 l 992 0 l 56 0 z "},"Û":{"ha":1047,"x_min":56,"x_max":992,"o":"m 564 1226 l 697 1028 l 604 1028 l 524 1158 l 521 1158 l 440 1028 l 349 1028 l 479 1226 l 564 1226 m 289 936 l 289 117 l 56 117 l 56 936 l 289 936 m 758 936 l 992 936 l 992 117 l 758 117 l 758 936 m 56 0 l 56 53 l 992 53 l 992 0 l 56 0 z "},"Ù":{"ha":1047,"x_min":56,"x_max":992,"o":"m 289 936 l 289 117 l 56 117 l 56 936 l 289 936 m 758 936 l 992 936 l 992 117 l 758 117 l 758 936 m 56 0 l 56 53 l 992 53 l 992 0 l 56 0 m 529 1226 l 651 1028 l 565 1028 l 396 1226 l 529 1226 z "},"Œ":{"ha":1632,"x_min":56,"x_max":1576,"o":"m 758 936 l 992 936 l 992 0 l 992 0 l 407 0 l 407 53 l 758 53 l 758 936 m 642 871 l 289 871 l 289 0 l 56 0 l 56 936 l 56 936 l 56 936 l 642 936 l 642 871 m 992 936 l 992 51 l 1576 51 l 1576 0 l 758 0 l 758 936 l 992 936 m 1108 936 l 1576 936 l 1576 871 l 1108 871 l 1108 936 m 1108 467 l 1108 521 l 1576 521 l 1576 467 l 1108 467 z "},"œ":{"ha":1453,"x_min":56,"x_max":1397,"o":"m 503 610 l 281 610 l 281 0 l 56 0 l 56 672 l 503 672 l 503 610 m 614 672 l 839 672 l 839 0 l 392 0 l 392 50 l 614 50 l 614 672 m 839 560 l 839 50 l 1397 50 l 1397 0 l 614 0 l 614 560 l 839 560 m 614 672 l 1397 672 l 1397 672 l 1397 274 l 1397 274 l 949 274 l 949 339 l 1174 339 l 1174 610 l 614 610 l 614 672 z "},"–":{"ha":1157,"x_min":0,"x_max":0,"o":""},"±":{"ha":713,"x_min":56,"x_max":656,"o":"m 656 375 l 429 375 l 429 117 l 281 117 l 281 375 l 56 375 l 56 415 l 281 415 l 281 640 l 429 640 l 429 415 l 656 415 l 656 375 m 56 40 l 656 40 l 656 0 l 56 0 l 56 40 z "},"$":{"ha":1047,"x_min":56,"x_max":978,"o":"m 581 871 l 581 65 l 632 65 l 632 475 l 863 475 l 863 14 l 581 14 l 581 -275 l 451 -275 l 451 14 l 56 14 l 56 65 l 451 65 l 451 871 l 401 871 l 401 410 l 171 410 l 171 936 l 171 936 l 451 936 l 451 1050 l 581 1050 l 581 936 l 978 936 l 978 871 l 581 871 l 581 871 z "},"#":{"ha":1146,"x_min":56,"x_max":1090,"o":"m 1085 619 l 960 619 l 928 247 l 1053 247 l 1047 181 l 922 181 l 906 0 l 658 0 l 675 181 l 428 181 l 411 0 l 164 0 l 181 181 l 56 181 l 61 247 l 186 247 l 218 619 l 93 619 l 99 675 l 224 675 l 240 867 l 488 867 l 471 675 l 718 675 l 735 867 l 982 867 l 965 675 l 1090 675 l 1085 619 m 681 247 l 713 619 l 465 619 l 433 247 l 681 247 z "},"ï":{"ha":560,"x_min":56,"x_max":504,"o":"m 504 63 l 504 0 l 169 0 l 169 613 l 56 613 l 56 676 l 390 676 l 390 63 l 504 63 m 138 792 q 89 813 108 792 q 69 863 69 835 q 90 913 69 892 q 140 933 110 933 q 188 913 168 933 q 207 863 207 893 q 188 813 207 835 q 138 792 169 792 m 396 792 q 347 813 365 792 q 328 863 328 835 q 348 913 328 892 q 397 933 368 933 q 446 913 426 933 q 465 863 465 893 q 447 813 465 835 q 396 792 428 792 z "},"î":{"ha":560,"x_min":56,"x_max":504,"o":"m 504 63 l 504 0 l 169 0 l 169 0 l 169 613 l 56 613 l 56 676 l 390 676 l 390 676 l 390 63 l 504 63 m 275 963 l 408 764 l 315 764 l 235 894 l 232 894 l 151 764 l 60 764 l 190 963 l 275 963 z "},"«":{"ha":1157,"x_min":0,"x_max":0,"o":""},"»":{"ha":1157,"x_min":0,"x_max":0,"o":""},"Æ":{"ha":1632,"x_min":56,"x_max":1575,"o":"m 289 936 l 289 467 l 640 467 l 640 403 l 56 403 l 56 936 l 289 936 m 56 0 l 56 350 l 289 350 l 289 0 l 56 0 m 992 936 l 992 0 l 757 0 l 757 869 l 406 869 l 406 936 l 992 936 m 990 936 l 990 51 l 1575 51 l 1575 0 l 757 0 l 757 936 l 990 936 m 1107 936 l 1575 936 l 1575 871 l 1107 871 l 1107 936 m 1107 467 l 1107 521 l 1575 521 l 1575 467 l 1107 467 z "},"Ø":{"ha":1047,"x_min":56,"x_max":992,"o":"m 758 936 l 992 936 l 992 0 l 992 0 l 407 0 l 407 53 l 758 53 l 758 936 m 642 871 l 289 871 l 289 0 l 56 0 l 56 936 l 56 936 l 56 936 l 642 936 l 642 871 m 282 -54 l 668 953 l 764 953 l 375 -54 l 282 -54 z "},"¥":{"ha":1047,"x_min":56,"x_max":992,"o":"m 56 403 l 56 936 l 290 936 l 290 403 l 56 403 m 758 936 l 992 936 l 992 403 l 992 403 l 407 403 l 407 468 l 758 468 l 758 936 m 407 0 l 407 135 l 114 135 l 114 199 l 407 199 l 407 290 l 114 290 l 114 353 l 932 353 l 932 290 l 640 290 l 640 199 l 932 199 l 932 135 l 640 135 l 640 0 l 407 0 z "},"µ":{"ha":1157,"x_min":0,"x_max":0,"o":""},"∫":{"ha":1157,"x_min":0,"x_max":0,"o":""},"π":{"ha":1157,"x_min":0,"x_max":0,"o":""},"∏":{"ha":1157,"x_min":0,"x_max":0,"o":""},"∑":{"ha":1157,"x_min":0,"x_max":0,"o":""},"∂":{"ha":1157,"x_min":0,"x_max":0,"o":""},"€":{"ha":803,"x_min":56,"x_max":747,"o":"m 747 278 l 338 278 l 338 6 l 115 6 l 115 278 l 56 278 l 56 340 l 115 340 l 115 550 l 56 550 l 56 613 l 115 613 l 115 908 l 724 908 l 724 858 l 338 858 l 338 613 l 747 613 l 747 550 l 338 550 l 338 340 l 747 340 l 747 278 m 376 68 l 724 68 l 724 6 l 376 6 l 376 68 z "},"ﬁ":{"ha":1119,"x_min":56,"x_max":1064,"o":"m 1064 63 l 1064 0 l 729 0 l 729 611 l 431 611 l 431 672 l 950 672 l 950 63 l 1064 63 m 56 611 l 56 672 l 168 672 l 168 611 l 56 611 m 843 938 l 506 938 l 506 672 l 729 672 l 729 611 l 506 611 l 506 0 l 281 0 l 281 986 l 281 986 l 843 986 l 843 938 z "},"ﬂ":{"ha":1182,"x_min":56,"x_max":1125,"o":"m 56 611 l 56 672 l 168 672 l 168 611 l 56 611 m 843 938 l 506 938 l 506 672 l 729 672 l 729 611 l 506 611 l 506 0 l 281 0 l 281 986 l 281 986 l 843 986 l 843 938 m 1031 42 l 1125 42 l 1125 0 l 747 0 l 747 42 l 842 42 l 842 944 l 747 944 l 747 986 l 1031 986 l 1031 42 l 1031 42 z "},"‡":{"ha":604,"x_min":56,"x_max":549,"o":"m 200 -231 l 200 217 l 56 217 l 56 279 l 200 279 l 200 489 l 56 489 l 56 551 l 200 551 l 200 869 l 403 869 l 403 551 l 549 551 l 549 489 l 403 489 l 403 279 l 549 279 l 549 217 l 403 217 l 403 -231 l 200 -231 z "},"·":{"ha":1157,"x_min":0,"x_max":0,"o":""},"‚":{"ha":319,"x_min":56,"x_max":263,"o":"m 56 -164 q 78 -92 67 -133 q 101 -8 90 -51 q 122 80 113 36 q 138 161 132 124 l 263 175 q 234 83 250 131 q 200 -10 218 35 q 165 -94 182 -56 q 133 -156 147 -132 l 56 -164 z "},"‰":{"ha":1733,"x_min":56,"x_max":1678,"o":"m 310 -17 l 842 919 l 919 919 l 388 -17 l 310 -17 m 56 918 l 483 918 l 483 364 l 56 364 l 56 918 m 153 439 l 386 439 l 386 844 l 153 844 l 153 439 m 761 547 l 1189 547 l 1189 -7 l 761 -7 l 761 547 m 858 68 l 1092 68 l 1092 474 l 858 474 l 858 68 m 1250 547 l 1678 547 l 1678 -7 l 1250 -7 l 1250 547 m 1347 68 l 1581 68 l 1581 474 l 1347 474 l 1347 68 z "},"æ":{"ha":1443,"x_min":46,"x_max":1388,"o":"m 1388 672 l 1388 274 l 939 274 l 939 339 l 1164 339 l 1164 610 l 831 610 l 831 50 l 1388 50 l 1388 0 l 604 0 l 604 672 l 1388 672 m 272 51 l 494 51 l 494 0 l 46 0 l 46 672 l 494 672 l 494 611 l 272 611 l 272 51 z "},"ø":{"ha":894,"x_min":56,"x_max":839,"o":"m 503 610 l 281 610 l 281 0 l 56 0 l 56 672 l 503 672 l 503 610 m 614 672 l 839 672 l 839 0 l 392 0 l 392 50 l 614 50 l 614 672 m 182 -146 l 568 861 l 664 861 l 275 -146 l 182 -146 z "},"¬":{"ha":1157,"x_min":0,"x_max":0,"o":""},"√":{"ha":1157,"x_min":0,"x_max":0,"o":""},"ƒ":{"ha":899,"x_min":56,"x_max":843,"o":"m 174 -168 l 281 -168 l 281 986 l 843 986 l 843 938 l 506 938 l 506 672 l 729 672 l 729 611 l 506 611 l 506 -229 l 174 -229 l 174 -168 m 56 672 l 168 672 l 168 611 l 56 611 l 56 672 z "},"≈":{"ha":828,"x_min":65,"x_max":763,"o":"m 68 292 q 113 449 65 396 q 233 501 161 501 q 276 498 256 501 q 319 487 296 494 q 368 467 342 479 q 431 439 394 456 q 524 397 483 414 q 603 381 564 381 q 678 497 675 381 l 760 497 q 750 399 763 439 q 715 335 738 360 q 663 299 693 310 q 601 288 633 288 q 516 301 560 288 q 400 349 472 315 q 311 391 351 372 q 233 410 271 410 q 174 382 196 410 q 151 292 153 354 l 68 292 m 68 292 q 113 449 65 396 q 233 501 161 501 q 276 498 256 501 q 319 487 296 494 q 368 467 342 479 q 431 439 394 456 q 524 397 483 414 q 603 381 564 381 q 678 497 675 381 l 760 497 q 750 399 763 439 q 715 335 738 360 q 663 299 693 310 q 601 288 633 288 q 516 301 560 288 q 400 349 472 315 q 311 391 351 372 q 233 410 271 410 q 174 382 196 410 q 151 292 153 354 l 68 292 z "},"∆":{"ha":1157,"x_min":0,"x_max":0,"o":""},"≠":{"ha":608,"x_min":1,"x_max":607,"o":"m 1 -71 l 529 863 l 607 863 l 79 -71 l 1 -71 m 549 489 l 56 489 l 56 551 l 549 551 l 549 489 m 549 217 l 56 217 l 56 279 l 549 279 l 549 217 z "},"¨":{"ha":1157,"x_min":0,"x_max":0,"o":""},"´":{"ha":1157,"x_min":0,"x_max":0,"o":""},"™":{"ha":836,"x_min":56,"x_max":810,"o":"m 256 869 l 256 869 l 256 551 l 174 551 l 174 847 l 56 847 l 56 869 l 256 869 m 294 869 l 374 869 l 374 847 l 294 847 l 294 869 m 571 551 l 571 831 l 651 831 l 651 551 l 571 551 m 729 869 l 810 869 l 810 551 l 729 551 l 729 869 m 411 869 l 690 869 l 690 847 l 492 847 l 492 551 l 411 551 l 411 869 z "},"©":{"ha":1157,"x_min":0,"x_max":0,"o":""},"®":{"ha":1157,"x_min":0,"x_max":0,"o":""},"†":{"ha":604,"x_min":56,"x_max":549,"o":"m 200 -347 l 200 403 l 56 403 l 56 465 l 200 465 l 200 1042 l 403 1042 l 403 465 l 549 465 l 549 403 l 403 403 l 403 -347 l 200 -347 z "},"°":{"ha":1157,"x_min":0,"x_max":0,"o":""},"¢":{"ha":783,"x_min":56,"x_max":728,"o":"m 728 672 l 728 622 l 575 622 l 575 63 l 728 63 l 728 0 l 575 0 l 575 -139 l 372 -139 l 372 0 l 317 0 l 317 63 l 372 63 l 372 622 l 278 622 l 278 0 l 56 0 l 56 672 l 372 672 l 372 811 l 575 811 l 575 672 l 728 672 z "},"£":{"ha":814,"x_min":0,"x_max":0,"o":""},"§":{"ha":1157,"x_min":0,"x_max":0,"o":""},"•":{"ha":1157,"x_min":0,"x_max":0,"o":""},"¶":{"ha":1157,"x_min":0,"x_max":0,"o":""},"ß":{"ha":1157,"x_min":0,"x_max":0,"o":""},"∞":{"ha":1157,"x_min":0,"x_max":0,"o":""},"@":{"ha":1144,"x_min":56,"x_max":1089,"o":"m 617 0 l 168 0 l 168 0 l 168 0 l 168 671 l 168 671 l 168 671 l 617 671 l 617 608 l 393 608 l 393 50 l 617 50 l 617 0 m 1089 783 l 1089 0 l 728 0 l 728 0 l 728 0 l 728 671 l 951 671 l 951 50 l 1039 50 l 1039 721 l 106 721 l 106 -50 l 1089 -50 l 1089 -112 l 56 -112 l 56 783 l 1089 783 z "}," ":{"ha":294,"x_min":0,"x_max":0,"o":""}}}
